<?xml version="1.0" encoding="utf-8"?>
<!-- Generator: Adobe Illustrator 24.3.0, SVG Export Plug-In . SVG Version: 6.00 Build 0)  -->
            <svg width="21" height="20" viewBox="0 0 21 20" fill="none" xmlns="http://www.w3.org/2000/svg">
<path d="M8.56913 14.8324L4.28699 10.5302L6.56813 8.24911L8.62916 10.4902L14.1919 5.86792L15.8528 7.54876L8.56913 14.8324Z" fill="#0032EB"/>
<path d="M17.0735 2.92646C13.1716 -0.975488 6.82841 -0.975488 2.92646 2.92646C-0.975487 6.82841 -0.975487 13.1716 2.92646 17.0735C6.82841 20.9755 13.1716 20.9755 17.0735 17.0735C20.9755 13.2116 20.9955 6.88844 17.1136 2.98649C17.0935 2.96648 17.0735 2.94647 17.0735 2.92646ZM15.953 15.973C12.6113 19.2346 7.26863 19.1546 4.02701 15.8129C0.845422 12.5313 0.845422 7.30865 4.02701 4.04702C7.36868 0.785393 12.7114 0.865432 15.953 4.2071C19.1546 7.48874 19.1546 12.7114 15.953 15.973Z" fill="#0032EB"/>
<path d="M8.62916 10.4902L6.54812 8.24911L4.28699 10.5302L8.56913 14.8324L15.8328 7.56877L14.1719 5.86792L8.62916 10.4902Z" fill="#0032EB"/>
</svg>
