<svg xmlns="http://www.w3.org/2000/svg" width="65.166" height="71" viewBox="0 0 65.166 71">
  <g id="Group_400" data-name="Group 400" transform="translate(110.482 12.18)">
    <path id="Path_3353" data-name="Path 3353" d="M-56.024,20.4a1.458,1.458,0,0,0-1.458,1.458V45.195a4.379,4.379,0,0,1-4.375,4.374,4.379,4.379,0,0,1-4.375-4.374V34.2a8.76,8.76,0,0,0-8.75-8.75,8.76,8.76,0,0,0-8.75,8.75V51.028A4.379,4.379,0,0,1-88.107,55.4a4.379,4.379,0,0,1-4.375-4.375V29.084A16.061,16.061,0,0,0-77.9,13.111V1.445a10.215,10.215,0,0,0-8.75-10.091v-1.575a1.459,1.459,0,0,0-1.459-1.458,1.458,1.458,0,0,0-1.458,1.458V-2.93a1.458,1.458,0,0,0,1.458,1.458A1.459,1.459,0,0,0-86.649-2.93V-5.7a7.3,7.3,0,0,1,5.833,7.144V13.111A13.14,13.14,0,0,1-93.941,26.237a13.14,13.14,0,0,1-13.125-13.125V1.445A7.3,7.3,0,0,1-101.232-5.7V-2.93a1.459,1.459,0,0,0,1.458,1.458A1.458,1.458,0,0,0-98.316-2.93v-7.291a1.458,1.458,0,0,0-1.458-1.458,1.459,1.459,0,0,0-1.458,1.458v1.575a10.215,10.215,0,0,0-8.75,10.091V13.111A16.061,16.061,0,0,0-95.4,29.084V51.028a7.3,7.3,0,0,0,7.291,7.292,7.3,7.3,0,0,0,7.291-7.292V34.2a5.84,5.84,0,0,1,5.833-5.833A5.84,5.84,0,0,1-69.149,34.2v10.99a7.3,7.3,0,0,0,7.291,7.291,7.3,7.3,0,0,0,7.291-7.291V21.861A1.458,1.458,0,0,0-56.024,20.4Z" fill="#045395" stroke="#fff" stroke-miterlimit="10" stroke-width="1"/>
    <g id="Group_399" data-name="Group 399" transform="translate(-66.232 2.903)">
      <path id="Path_3354" data-name="Path 3354" d="M-12.274,37.9A10.22,10.22,0,0,1-22.482,27.695,10.22,10.22,0,0,1-12.274,17.487,10.22,10.22,0,0,1-2.066,27.695,10.22,10.22,0,0,1-12.274,37.9Zm0-17.5a7.3,7.3,0,0,0-7.292,7.291,7.3,7.3,0,0,0,7.292,7.292,7.3,7.3,0,0,0,7.291-7.292A7.3,7.3,0,0,0-12.274,20.4Z" transform="translate(22.482 -17.487)" fill="#97c940" stroke="#fff" stroke-miterlimit="10" stroke-width="1"/>
    </g>
  </g>
</svg>
