<svg xmlns="http://www.w3.org/2000/svg" viewBox="0 0 69.01 70.45"><g id="Layer_2" data-name="Layer 2"><g id="Layer_1-2" data-name="Layer 1"><path d="M31.58,54.66H3.78a3,3,0,0,1-2.93-3V3.84a3,3,0,0,1,2.93-3H47.67a3,3,0,0,1,2.93,3V33.73" fill="none" stroke="#fff" stroke-linecap="round" stroke-linejoin="round" stroke-width="1.7"/><path d="M45.33,66,33,69.6l3.51-12.55,21-21.46a6.11,6.11,0,0,1,8.78,0,6.45,6.45,0,0,1,0,9Z" fill="none" stroke="#fff" stroke-linecap="round" stroke-linejoin="round" stroke-width="1.7"/><path d="M54.92,38.28l8.78,9" fill="none" stroke="#fff" stroke-linecap="round" stroke-linejoin="round" stroke-width="1.7"/><path d="M36.55,57.05l8.78,9" fill="none" stroke="#fff" stroke-linecap="round" stroke-linejoin="round" stroke-width="1.7"/><path d="M17,12.81H37.43" fill="none" stroke="#fff" stroke-linecap="round" stroke-linejoin="round" stroke-width="1.7"/><path d="M11.09,21.78H37.43" fill="none" stroke="#fff" stroke-linecap="round" stroke-linejoin="round" stroke-width="1.7"/><path d="M11.09,30.74H37.43" fill="none" stroke="#fff" stroke-linecap="round" stroke-linejoin="round" stroke-width="1.7"/><path d="M11.09,39.71h19" fill="none" stroke="#fff" stroke-linecap="round" stroke-linejoin="round" stroke-width="1.7"/></g></g></svg>