<svg xmlns="http://www.w3.org/2000/svg" viewBox="0 0 106.2 101.79"><g id="Layer_2" data-name="Layer 2"><g id="Layer_1-2" data-name="Layer 1"><path d="M73.55,75.42l-1.46-2.19v0L61.87,57.82,45.63,33.37A2.19,2.19,0,1,0,42,35.79l.57.86L4.83,82.44a2.18,2.18,0,0,0-3.46,2.64l4.37,6.59,1.5,2.27h0l1.47,2.21a2.2,2.2,0,0,0,1.83,1,2.14,2.14,0,0,0,1.2-.37A2.17,2.17,0,0,0,12.49,94l9-2.67,2.92,4.38a11.21,11.21,0,0,0,1.49,1.81A11.73,11.73,0,0,0,27.68,99,11.4,11.4,0,0,0,29.77,100a11.26,11.26,0,0,0,4.13.77h.46a11.19,11.19,0,0,0,2.32-.33,11.68,11.68,0,0,0,2.21-.8,11.42,11.42,0,0,0,3.7-2.83,11.59,11.59,0,0,0,1.34-1.92,11.73,11.73,0,0,0,.93-2.15,12,12,0,0,0,.47-2.3,11.44,11.44,0,0,0,0-2.34,11.24,11.24,0,0,0-.48-2.29,9.74,9.74,0,0,0-.54-1.35l25-7.49.57.86a2.19,2.19,0,0,0,1.83,1,2.27,2.27,0,0,0,1.21-.36A2.2,2.2,0,0,0,73.55,75.42ZM40.1,85.82a7.87,7.87,0,0,1,.58,1.33A7.61,7.61,0,0,1,41,88.57,7,7,0,0,1,41,90a6.28,6.28,0,0,1-.29,1.42,6.5,6.5,0,0,1-.57,1.33A8.17,8.17,0,0,1,39.28,94a7.11,7.11,0,0,1-1.06,1,6.92,6.92,0,0,1-2.6,1.25,7,7,0,0,1-1.43.21,7.07,7.07,0,0,1-1.45-.09,7,7,0,0,1-2.69-1,7.09,7.09,0,0,1-1.13-.9A6.86,6.86,0,0,1,28,93.27L25.83,90l14.22-4.26A.35.35,0,0,0,40.1,85.82Zm.17-4.71-.07,0-18,5.4a2,2,0,0,0-.86.25L10,90.17,7.38,86.23,45.09,40.46,55.66,56.38,66.8,73.17Z" fill="#003d79" stroke="#fff" stroke-miterlimit="10" stroke-width="2"/><path d="M57.89,95.63a4.37,4.37,0,0,1-3-1.19L53.31,93a2.19,2.19,0,1,1,3-3.18l1.58,1.49,8.31-7.87a2.17,2.17,0,0,1,2-.55l11.14,2.63,3.27-11A2.19,2.19,0,0,1,84.08,73l11-3.27L92.41,58.63a2.18,2.18,0,0,1,.54-2l7.88-8.32L93,40a2.18,2.18,0,0,1-.54-2L95,26.9,84,23.61a2.2,2.2,0,0,1-1.47-1.48l-3.27-11L68.16,13.79a2.2,2.2,0,0,1-2-.55L57.85,5.37l-8.31,7.87a2.22,2.22,0,0,1-2,.55L36.4,11.14l-3.22,11A2.22,2.22,0,0,1,31.7,23.6l-11,3.27L23.36,38a2.21,2.21,0,0,1-.55,2l-7.87,8.31,2.94,3.11a2.19,2.19,0,1,1-3.18,3l-2.94-3.11a4.27,4.27,0,0,1-.88-1.38,4.32,4.32,0,0,1-.31-1.62,4.41,4.41,0,0,1,1.19-3l7.07-7.46-2.36-10a4.36,4.36,0,0,1-.07-1.65,4.55,4.55,0,0,1,.54-1.55A4.43,4.43,0,0,1,18,23.43a4.53,4.53,0,0,1,1.46-.76l9.84-2.93L32.25,9.9a4.34,4.34,0,0,1,2-2.51,4.35,4.35,0,0,1,3.15-.52l10,2.38,7.45-7.06a4.4,4.4,0,0,1,4.62-.88,4.21,4.21,0,0,1,1.39.88l7.46,7.07,10-2.36a4.52,4.52,0,0,1,1.64-.07,4.44,4.44,0,0,1,2.8,1.62,4.53,4.53,0,0,1,.76,1.46l2.93,9.84,9.83,2.93a4.47,4.47,0,0,1,1.47.76,4.38,4.38,0,0,1,1.63,2.83,4.64,4.64,0,0,1-.09,1.66l-2.33,9.92L104,45.3a4.36,4.36,0,0,1,0,6l-7.06,7.46,2.37,10a4.28,4.28,0,0,1-.47,3.2,4.42,4.42,0,0,1-1.07,1.25A4.27,4.27,0,0,1,96.3,74l-9.83,2.93-2.93,9.84a4.18,4.18,0,0,1-.77,1.46,4.28,4.28,0,0,1-1.24,1.08A4.34,4.34,0,0,1,80,89.8a4.57,4.57,0,0,1-1.65-.07l-10-2.36-7.46,7.07a4.41,4.41,0,0,1-3,1.19Z" fill="#a1c755" stroke="#fff" stroke-miterlimit="10" stroke-width="2"/></g></g></svg>