<svg xmlns="http://www.w3.org/2000/svg" viewBox="0 0 100.99 92.79"><g id="Layer_2" data-name="Layer 2"><g id="Layer_1-2" data-name="Layer 1"><g id="JUUdcG"><path d="M70.27,30.55c-.29-.87-.61-1.72-.87-2.6a7.38,7.38,0,0,1,14-4.71C87,33,90.79,42.8,94.18,52.69c3.5,10.22,2.58,20.09-4.21,28.78-11.1,14.22-33.32,14.63-45.08.94a46.08,46.08,0,0,1-4.65-6.82C32.89,63,25.62,50.3,18.33,37.65c-3.07-5.33-.48-10.67,5.58-11.53l.56-.12-1.13-1.93c-3-5.27-.4-10.69,5.63-11.54l.57-.1a7.8,7.8,0,0,1,.15-6.23A7.27,7.27,0,0,1,33,2.88c3.23-1.66,6.1-.93,9.29,2.41a21.68,21.68,0,0,1,1.44-1.71,7.33,7.33,0,0,1,11.6,1.59C59.63,12.54,63.87,20,68.14,27.34c.64,1.12,1.3,2.23,2,3.35ZM65.38,88.93c16,0,27.12-11,27.25-25.29a34.89,34.89,0,0,0-2.72-12.81c-3.25-8.65-6.37-17.35-9.64-26a5.72,5.72,0,0,0-1.94-2.47,3.64,3.64,0,0,0-4.44.38,3.92,3.92,0,0,0-1.13,4.45c2.28,6.65,4.59,13.29,6.88,19.93.45,1.32.21,2.14-.73,2.6s-1.75,0-2.46-1.11c-.09-.14-.15-.3-.24-.44Q64.35,27.61,52.46,7.07A4,4,0,1,0,45.6,11q2.37,4.14,4.76,8.27Q55,27.21,59.53,35.15c.66,1.15.43,2.18-.53,2.7s-1.8.14-2.49-1c-.13-.21-.25-.44-.37-.65q-8.1-14-16.22-28a6.45,6.45,0,0,0-1.47-1.84,3.74,3.74,0,0,0-4.75.22,3.86,3.86,0,0,0-.65,5q8.37,14.52,16.76,29c.73,1.25.57,2.3-.38,2.84s-1.89.18-2.64-1.11Q40,30.59,33.23,18.85A9.27,9.27,0,0,0,32.1,17.2a3.78,3.78,0,0,0-4.82-.6,3.87,3.87,0,0,0-1.47,4.65,13.93,13.93,0,0,0,.9,1.65l16,27.72a1.86,1.86,0,0,1-.4,2.66c-1,.57-1.91.22-2.58-.94Q33.82,42.13,27.89,31.92c-1.3-2.25-3.5-3-5.49-1.82S20,33.54,21.26,35.78C29,49.15,36.64,62.55,44.44,75.88,49.47,84.47,57.23,88.56,65.38,88.93Z" fill="#003d79" stroke="#a1c755" stroke-miterlimit="10" stroke-width="0.75"/><path d="M34.4,83.19c1.23-.09,2.36-.16,3.48-.26,1.28-.11,2.1.4,2.25,1.45s-.51,1.85-1.85,2A34,34,0,0,1,1.15,59.62a33.36,33.36,0,0,1,3.4-23.35,4.38,4.38,0,0,1,.85-1.22,1.56,1.56,0,0,1,2.18,0c.8.67.7,1.47.34,2.38-1.16,2.91-2.6,5.75-3.31,8.77-4,17.19,8.51,34.71,26,36.68C31.91,83,33.2,83.09,34.4,83.19Z" fill="#a1c755" stroke="#a1c755" stroke-miterlimit="10" stroke-width="0.75"/><path d="M33.77,79.55A27.11,27.11,0,0,1,7.6,50.07a27.52,27.52,0,0,1,3.26-10.6c.67-1.22,1.56-1.59,2.53-1.1s1.18,1.5.5,2.8c-7.61,14.52.4,31.31,16.49,34.53a27.22,27.22,0,0,0,3.62.35c1.47.09,2.26.7,2.23,1.81s-.87,1.7-2.33,1.69Z" fill="#a1c755" stroke="#a1c755" stroke-miterlimit="10" stroke-width="0.75"/><path d="M67.85.44A34,34,0,0,1,100.19,29.2c.22,1.57.35,3.16.42,4.74s-.6,2.28-1.72,2.28S97.2,35.44,97.12,34C96.45,20.72,90,11.45,77.91,6.08A27.64,27.64,0,0,0,67.28,3.9c-.54,0-1.23,0-1.55-.29a2.4,2.4,0,0,1-.85-1.73c.09-.54.8-1.1,1.36-1.39S67.31.44,67.85.44Z" fill="#a1c755" stroke="#a1c755" stroke-miterlimit="10" stroke-width="0.75"/><path d="M67.64,7.7A26.85,26.85,0,0,1,93.32,33.78c0,.21,0,.42,0,.63a1.71,1.71,0,0,1-1.84,1.79c-1.09-.1-1.53-.78-1.67-1.84a41.67,41.67,0,0,0-1.12-6.91A23.08,23.08,0,0,0,67,11.2c-1.41,0-2.27-.75-2.21-1.83S65.65,7.7,67,7.7Z" fill="#a1c755" stroke="#a1c755" stroke-miterlimit="10" stroke-width="0.75"/></g></g></g></svg>