<svg xmlns="http://www.w3.org/2000/svg" width="74.042" height="74.043" viewBox="0 0 74.042 74.043">
  <g id="Group_398" data-name="Group 398" transform="translate(-65.062 -0.895)">
    <g id="Group_390" data-name="Group 390">
      <path id="Path_3345" data-name="Path 3345" d="M108.17,28.787H79.257a1.522,1.522,0,1,1,0-3.044H108.17a1.522,1.522,0,0,1,0,3.044Z" fill="#045395" stroke="#fff" stroke-miterlimit="10" stroke-width="1"/>
    </g>
    <g id="Group_391" data-name="Group 391">
      <path id="Path_3346" data-name="Path 3346" d="M97.519,37.917H79.257a1.522,1.522,0,1,1,0-3.044H97.519a1.522,1.522,0,0,1,0,3.044Z" fill="#045395" stroke="#fff" stroke-miterlimit="10" stroke-width="1"/>
    </g>
    <g id="Group_392" data-name="Group 392">
      <path id="Path_3347" data-name="Path 3347" d="M100.562,19.656h-21.3a1.522,1.522,0,1,1,0-3.044h21.3a1.522,1.522,0,0,1,0,3.044Z" fill="#045395" stroke="#fff" stroke-miterlimit="10" stroke-width="1"/>
    </g>
    <g id="Group_393" data-name="Group 393">
      <path id="Path_3348" data-name="Path 3348" d="M91.432,47.047H79.257a1.522,1.522,0,1,1,0-3.044H91.432a1.522,1.522,0,0,1,0,3.044Z" fill="#045395" stroke="#fff" stroke-miterlimit="10" stroke-width="1"/>
    </g>
    <g id="Group_394" data-name="Group 394">
      <path id="Path_3349" data-name="Path 3349" d="M91.432,56.178H79.257a1.522,1.522,0,1,1,0-3.044H91.432a1.522,1.522,0,0,1,0,3.044Z" fill="#045395" stroke="#fff" stroke-miterlimit="10" stroke-width="1"/>
    </g>
    <g id="Group_395" data-name="Group 395">
      <path id="Path_3350" data-name="Path 3350" d="M97.519,74.438H70.127a4.57,4.57,0,0,1-4.565-4.565V5.96a4.57,4.57,0,0,1,4.565-4.565h40.457a4.6,4.6,0,0,1,3.228,1.338l11.282,11.282a4.529,4.529,0,0,1,1.337,3.227V27.265a1.521,1.521,0,1,1-3.043,0V17.242a1.508,1.508,0,0,0-.446-1.074L111.659,4.885a1.531,1.531,0,0,0-1.076-.447H70.127A1.524,1.524,0,0,0,68.605,5.96V69.873A1.525,1.525,0,0,0,70.127,71.4H97.519a1.521,1.521,0,1,1,0,3.042Z" fill="#045395" stroke="#fff" stroke-miterlimit="10" stroke-width="1"/>
    </g>
    <g id="Group_396" data-name="Group 396">
      <path id="Path_3351" data-name="Path 3351" d="M118.822,74.438A19.783,19.783,0,1,1,138.6,54.656,19.8,19.8,0,0,1,118.822,74.438Zm0-36.521a16.74,16.74,0,1,0,16.74,16.739A16.758,16.758,0,0,0,118.822,37.917Z" fill="#045395" stroke="#fff" stroke-miterlimit="10" stroke-width="1"/>
    </g>
    <g id="Group_397" data-name="Group 397">
      <path id="Path_3352" data-name="Path 3352" d="M116.282,63.57A3.775,3.775,0,0,1,114,62.8a3.921,3.921,0,0,1-.388-.335l-4.575-4.575a1.522,1.522,0,1,1,2.152-2.152l4.565,4.565a.829.829,0,0,0,.081.069.767.767,0,0,0,1.069-.155l8.84-11.785a1.522,1.522,0,0,1,2.436,1.826l-8.842,11.787a3.82,3.82,0,0,1-3.055,1.522Z" fill="#97c940" stroke="#fff" stroke-miterlimit="10" stroke-width="1"/>
    </g>
  </g>
</svg>
