<?xml version="1.0" encoding="utf-8"?>
<!-- Generator: Adobe Illustrator 24.1.3, SVG Export Plug-In . SVG Version: 6.00 Build 0)  -->
<svg version="1.1" id="Layer_1" xmlns="http://www.w3.org/2000/svg" xmlns:xlink="http://www.w3.org/1999/xlink" x="0px" y="0px"
	 viewBox="0 0 26.5 26.9" style="enable-background:new 0 0 26.5 26.9;" xml:space="preserve">
<style type="text/css">
	.st0{fill:none;stroke:#003D79;stroke-width:3;stroke-linecap:round;stroke-linejoin:round;}
</style>
<path id="Icon_feather-thumbs-up" class="st0" d="M15.8,9.9V5.1c0-2-1.6-3.6-3.6-3.6l0,0L7.5,12.2v13.1h13.5c1.2,0,2.2-0.8,2.4-2
	L25,12.6c0.2-1.3-0.7-2.5-2-2.7c0,0,0,0,0,0c-0.1,0-0.3,0-0.4,0L15.8,9.9z M7.5,25.4H3.9c-1.3,0-2.4-1.1-2.4-2.4v-8.4
	c0-1.3,1.1-2.4,2.4-2.4h3.6"/>
</svg>
